Coordinates
version=1
nRows=8
nColumns=42
inDegrees=yes

Units are S.I. units (second, meters, Newtons, ...)
If the header above contains a line with 'inDegrees', this indicates whether rotational values are in degrees (yes) or radians (no).

endheader
time	pelvis_tilt	pelvis_list	pelvis_rotation	pelvis_tx	pelvis_ty	pelvis_tz	hip_flexion_r	hip_adduction_r	hip_rotation_r	knee_angle_r	knee_adduction_r	knee_angle_r_beta	ankle_angle_r	subtalar_angle_r	mtp_angle_r	hip_flexion_l	hip_adduction_l	hip_rotation_l	knee_angle_l	knee_adduction_l	knee_angle_l_beta	ankle_angle_l	subtalar_angle_l	mtp_angle_l	lumbar_extension	lumbar_bending	lumbar_rotation	arm_flex_r	arm_add_r	arm_rot_r	elbow_flex_r	pro_sup_r	wrist_flex_r	wrist_dev_r	arm_flex_l	arm_add_l	arm_rot_l	elbow_flex_l	pro_sup_l	wrist_flex_l	wrist_dev_l
      1.10000000	      6.50695424	     -2.77706438	     -4.80342254	      0.16592400	      1.00992397	     -0.19995429	    -19.91294023	      0.76437235	      0.07752682	      4.88348690	     10.62276946	      0.08523293	     11.30297218	      7.13076732	     -7.57153948	     17.43869816	    -12.69394782	    -13.43844065	     22.74537748	     11.02228968	      0.39698173	      0.01457524	    -12.58417529	     -7.57153948	    -16.19187272	     -0.93722325	     11.09859673	     17.89613722	    -20.25624339	     -8.21996466	     33.59917869	     90.00000001	      0.00000000	      0.00000000	    -13.16112549	    -11.30606386	     -9.85780020	     13.70244946	     90.00000001	      0.00000000	      0.00000000
      1.11000000	      6.24403044	     -3.00702348	     -5.14969662	      0.17919191	      1.00726471	     -0.19939151	    -20.36511795	      0.82798328	      0.23050516	      5.14272045	     10.64726316	      0.08975740	     11.72939293	      7.47895598	     -7.56860437	     17.47002642	    -12.85634129	    -14.08206130	     19.31940828	     11.31903446	      0.33718728	      0.03369491	    -11.02991324	     -7.56860437	    -15.96523264	     -0.85759398	     11.44971686	     18.41695815	    -20.79729406	     -7.63462345	     34.47430291	     90.00000001	      0.00000000	      0.00000000	    -13.98232542	    -11.17266715	    -10.40506039	     13.51387269	     90.00000001	      0.00000000	      0.00000000
      1.12000000	      5.62551963	     -3.42068551	     -5.41477661	      0.19236465	      1.00412842	     -0.19857000	    -20.39265231	      1.24201038	      0.40855222	      5.52394392	     10.50493159	      0.09641101	     12.06429549	      7.62332881	     -7.56752223	     18.02031468	    -13.32311181	    -14.56383911	     16.32010729	     11.73616954	      0.28483961	     -0.04191481	     -9.28897167	     -7.56752223	    -15.37131635	     -0.56263452	     11.75250451	     18.93186756	    -21.20454544	     -7.28088224	     35.12420302	     90.00000001	      0.00000000	      0.00000000	    -14.85953906	    -11.10970440	    -10.61722764	     13.49563895	     90.00000001	      0.00000000	      0.00000000
      1.13000000	      5.67582969	     -3.55572308	     -5.85686216	      0.20607914	      1.00181246	     -0.19803124	    -21.18599558	      1.10482400	      0.71358378	      5.79076529	     10.54330733	      0.10106792	     12.43094864	      7.91324763	     -7.56540462	     17.53094667	    -13.41779261	    -15.24283309	     13.13368517	     12.19883383	      0.22922605	      0.34806636	     -7.39958254	     -7.56540462	    -15.46658089	     -0.63137557	     12.12385899	     19.31502632	    -21.72450171	     -6.57716695	     36.10851191	     90.00000001	      0.00000000	      0.00000000	    -15.54193770	    -10.96030759	    -11.28431459	     13.23570659	     90.00000001	      0.00000000	      0.00000000
      1.14000000	      5.47176132	     -3.66183176	     -6.25007731	      0.21984275	      0.99922220	     -0.19744505	    -21.66392992	      0.99460891	      0.97295910	      6.14749924	     10.54038849	      0.10729410	     12.68597955	      8.14795237	     -7.56255666	     17.48649582	    -13.51799017	    -15.99003823	     10.56161445	     12.59222880	      0.18433495	      0.47154074	     -5.29590570	     -7.56255666	    -15.27309737	     -0.71477225	     12.41514590	     19.67987191	    -22.10967038	     -6.09914989	     36.87711231	     90.00000001	      0.00000000	      0.00000000	    -16.17776281	    -10.83740696	    -12.14371006	     12.97150818	     90.00000001	      0.00000000	      0.00000000
      1.15000000	      4.97301464	     -3.91527362	     -6.53008290	      0.23357496	      0.99630909	     -0.19665772	    -21.77386026	      1.19413178	      1.24247354	      6.64358839	     10.40050849	      0.11595249	     12.87488856	      8.18038771	     -7.56169090	     17.90727168	    -13.87052492	    -16.29947963	      8.55790740	     13.12841860	      0.14936366	      0.49912336	     -3.73340625	     -7.56169090	    -14.76622562	     -0.61491151	     12.61531914	     20.01168165	    -22.35156117	     -5.85059300	     37.42020395	     90.00000001	      0.00000000	      0.00000000	    -16.90379342	    -10.79874028	    -12.39875330	     12.92108172	     90.00000001	      0.00000000	      0.00000000
      1.16000000	      5.04838354	     -3.80938948	     -7.03943080	      0.24788510	      0.99418243	     -0.19628540	    -22.48167064	      0.73182511	      1.66198547	      7.11000497	     10.40561333	      0.12409300	     13.05373596	      8.31366940	     -7.55672180	     17.63390159	    -13.71454676	    -17.43677969	      7.05842373	     13.31742865	      0.12319273	      1.23583818	     -1.01035155	     -7.55672180	    -14.82538500	     -0.95465689	     12.91917318	     20.24067279	    -22.67838064	     -5.40309517	     38.18906759	     90.00000001	      0.00000000	      0.00000000	    -17.23015832	    -10.60065353	    -14.07359025	     12.33653199	     90.00000001	      0.00000000	      0.00000000
      1.17000000	      4.77142749	     -3.90265400	     -7.35000849	      0.26204748	      0.99173334	     -0.19567344	    -22.75849557	      0.67221133	      2.02995878	      7.71459826	     10.31113721	      0.13464514	     13.06931463	      8.27846586	     -7.55596465	     17.87701994	    -13.81415955	    -17.53728576	      6.00363759	     13.63409787	      0.10478324	      1.30530488	     -0.01794223	     -7.55596465	    -14.53028372	     -1.05075282	     13.09838916	     20.37837093	    -22.85378308	     -5.17268993	     38.78458685	     90.00000001	      0.00000000	      0.00000000	    -17.79393279	    -10.56585060	    -14.27336543	     12.29688689	     90.00000001	      0.00000000	      0.00000000
